<svg width="28" height="28" viewBox="0 0 28 28" fill="none" xmlns="http://www.w3.org/2000/svg">
<path d="M15.1666 8.16665H12.8333V12.8333H8.16659V15.1666H12.8333V19.8333H15.1666V15.1666H19.8333V12.8333H15.1666V8.16665ZM13.9999 2.33331C7.55992 2.33331 2.33325 7.55998 2.33325 14C2.33325 20.44 7.55992 25.6666 13.9999 25.6666C20.4399 25.6666 25.6666 20.44 25.6666 14C25.6666 7.55998 20.4399 2.33331 13.9999 2.33331ZM13.9999 23.3333C8.85492 23.3333 4.66659 19.145 4.66659 14C4.66659 8.85498 8.85492 4.66665 13.9999 4.66665C19.1449 4.66665 23.3333 8.85498 23.3333 14C23.3333 19.145 19.1449 23.3333 13.9999 23.3333Z" fill="#6E7191"/>
</svg>
