<svg width="30" height="28" viewBox="0 0 30 28" fill="none" xmlns="http://www.w3.org/2000/svg">
<path d="M28.9848 17.5231C28.9151 15.9189 28.6361 14.1403 28.2176 12.4662C27.7991 10.862 27.276 9.36235 26.6482 8.21146C24.2069 3.92181 21.5564 4.58444 18.3828 5.42145C17.3714 5.66557 16.2903 5.94457 15.1743 6.0492H14.8255C13.7095 5.94457 12.6284 5.66557 11.617 5.42145C8.44335 4.61932 5.79283 3.92181 3.35157 8.24634C2.72381 9.39722 2.16581 10.8969 1.78218 12.5011C1.36368 14.1751 1.08468 15.9538 1.01493 17.558C0.945177 19.3367 1.11955 20.627 1.50318 21.5338C1.88681 22.3708 2.44481 22.8939 3.17719 23.1032C3.83982 23.2776 4.60707 23.2078 5.4092 22.8591C6.76934 22.3011 8.33872 21.1153 9.87323 19.6854C10.9544 18.6392 12.9771 18.116 14.9999 18.116C17.0226 18.116 19.0454 18.6392 20.1265 19.6854C21.6611 21.1153 23.2304 22.3011 24.5906 22.8591C25.3927 23.1729 26.16 23.2776 26.8226 23.1032C27.5201 22.8939 28.113 22.4057 28.4966 21.4989C28.8802 20.627 29.0546 19.3367 28.9848 17.5231ZM27.3108 21.0107C27.1016 21.4989 26.8226 21.7779 26.4738 21.8825C26.0902 21.9872 25.602 21.9174 25.0439 21.7082C23.8233 21.2199 22.3934 20.1388 20.9984 18.8135C19.6732 17.4883 17.3365 16.8256 14.9999 16.8256C12.6632 16.8256 10.3266 17.4883 8.96648 18.7438C7.53659 20.069 6.10671 21.185 4.92095 21.6384C4.36295 21.8477 3.8747 21.9523 3.49107 21.8128C3.14232 21.7082 2.86331 21.4292 2.65406 20.9409C2.37506 20.2783 2.23556 19.1972 2.30531 17.5929C2.37506 16.0933 2.61919 14.3844 3.03769 12.7801C3.42132 11.2805 3.90957 9.88547 4.50245 8.83922C6.42059 5.38657 8.6526 5.94457 11.3031 6.64208C12.3842 6.92108 13.5003 7.20008 14.7209 7.30471C14.7558 7.30471 14.7558 7.30471 14.7906 7.30471H15.1743C15.2091 7.30471 15.2091 7.30471 15.244 7.30471C16.4995 7.20008 17.6155 6.92108 18.6967 6.64208C21.3472 5.97945 23.5792 5.38657 25.4973 8.83922C26.0902 9.88547 26.5785 11.2456 26.9621 12.7801C27.3457 14.3844 27.6247 16.0584 27.6945 17.5929C27.7642 19.1972 27.6247 20.2783 27.3108 21.0107Z" fill="#6E7191" stroke="#6E7191" stroke-width="0.7"/>
<path d="M11.7915 10.7225C11.4427 10.4086 11.0242 10.1645 10.536 10.1296C10.5011 9.6762 10.2918 9.22282 9.97796 8.90894L9.94309 8.87407C9.55946 8.49044 9.07121 8.28119 8.5132 8.28119C7.9552 8.28119 7.43207 8.52532 7.08332 8.87407C6.76944 9.18794 6.52531 9.64132 6.49044 10.1296C6.00219 10.1645 5.58368 10.3737 5.23493 10.6876L5.20006 10.7225C4.81643 11.1061 4.60718 11.5943 4.60718 12.1523C4.60718 12.7103 4.8513 13.2335 5.20006 13.5822C5.54881 13.931 5.96731 14.1402 6.49044 14.1751C6.52531 14.6634 6.73457 15.1167 7.08332 15.4306C7.46695 15.8142 7.9552 16.0235 8.5132 16.0235C9.07121 16.0235 9.59433 15.7794 9.94309 15.4306C10.257 15.0819 10.5011 14.6634 10.536 14.1751C11.0242 14.1402 11.4776 13.931 11.7915 13.5822C12.1751 13.1986 12.3844 12.7103 12.3844 12.1523C12.3844 11.5943 12.1402 11.0712 11.7915 10.7225ZM10.9196 12.6755C10.7801 12.815 10.6057 12.8847 10.3965 12.8847H9.90821C9.55946 12.8847 9.24558 13.1637 9.24558 13.5473V14.0007C9.24558 14.21 9.17583 14.3844 9.03633 14.5239C8.89683 14.6634 8.72245 14.7331 8.5132 14.7331C8.30395 14.7331 8.12957 14.6634 7.99007 14.5239C7.85057 14.3844 7.78082 14.21 7.78082 14.0007V13.5125C7.78082 13.1637 7.50182 12.8498 7.11819 12.8498H6.62994C6.42069 12.8498 6.24631 12.7801 6.10681 12.6406C6.00219 12.536 5.89756 12.3616 5.89756 12.1523C5.89756 11.9431 5.96731 11.7687 6.10681 11.6292C6.10681 11.6292 6.10681 11.6292 6.14169 11.5943C6.28119 11.4897 6.45556 11.42 6.62994 11.42H7.11819C7.46695 11.42 7.78082 11.141 7.78082 10.7573V10.2691C7.78082 10.0598 7.85057 9.88545 7.99007 9.74595C8.12957 9.60645 8.30395 9.5367 8.5132 9.5367C8.72245 9.5367 8.89683 9.60645 9.03633 9.74595C9.03633 9.74595 9.03633 9.74595 9.07121 9.78082C9.17583 9.92032 9.24558 10.0947 9.24558 10.2691V10.7573C9.24558 11.1061 9.52458 11.42 9.90821 11.42H10.3965C10.6057 11.42 10.7801 11.4897 10.9196 11.6292C11.0591 11.7687 11.1288 11.9431 11.1288 12.1523C11.1288 12.3616 11.0591 12.536 10.9196 12.6755Z" fill="#6E7191"/>
<path d="M21.0682 10.8968C21.7423 10.8968 22.2888 10.3503 22.2888 9.6762C22.2888 9.00206 21.7423 8.45557 21.0682 8.45557C20.394 8.45557 19.8475 9.00206 19.8475 9.6762C19.8475 10.3503 20.394 10.8968 21.0682 10.8968Z" fill="#6E7191"/>
<path d="M21.0682 15.8491C21.7423 15.8491 22.2888 15.3026 22.2888 14.6285C22.2888 13.9544 21.7423 13.4079 21.0682 13.4079C20.394 13.4079 19.8475 13.9544 19.8475 14.6285C19.8475 15.3026 20.394 15.8491 21.0682 15.8491Z" fill="#6E7191"/>
<path d="M18.5922 13.373C19.2664 13.373 19.8128 12.8265 19.8128 12.1524C19.8128 11.4782 19.2664 10.9317 18.5922 10.9317C17.9181 10.9317 17.3716 11.4782 17.3716 12.1524C17.3716 12.8265 17.9181 13.373 18.5922 13.373Z" fill="#6E7191"/>
<path d="M23.5445 13.373C24.2186 13.373 24.7651 12.8265 24.7651 12.1524C24.7651 11.4782 24.2186 10.9317 23.5445 10.9317C22.8703 10.9317 22.3239 11.4782 22.3239 12.1524C22.3239 12.8265 22.8703 13.373 23.5445 13.373Z" fill="#6E7191"/>
</svg>
