<svg width="28" height="28" viewBox="0 0 28 28" fill="none" xmlns="http://www.w3.org/2000/svg">
<path d="M18.0833 12.8333C19.0498 12.8333 19.8333 12.0498 19.8333 11.0833C19.8333 10.1168 19.0498 9.33331 18.0833 9.33331C17.1168 9.33331 16.3333 10.1168 16.3333 11.0833C16.3333 12.0498 17.1168 12.8333 18.0833 12.8333Z" fill="#6E7191"/>
<path d="M9.9165 12.8333C10.883 12.8333 11.6665 12.0498 11.6665 11.0833C11.6665 10.1168 10.883 9.33331 9.9165 9.33331C8.95001 9.33331 8.1665 10.1168 8.1665 11.0833C8.1665 12.0498 8.95001 12.8333 9.9165 12.8333Z" fill="#6E7191"/>
<path d="M13.9998 21C16.6598 21 18.9232 19.0633 19.8332 16.3333H8.1665C9.0765 19.0633 11.3398 21 13.9998 21Z" fill="#6E7191"/>
<path d="M13.9883 2.33331C7.54825 2.33331 2.33325 7.55998 2.33325 14C2.33325 20.44 7.54825 25.6666 13.9883 25.6666C20.4399 25.6666 25.6666 20.44 25.6666 14C25.6666 7.55998 20.4399 2.33331 13.9883 2.33331ZM13.9999 23.3333C8.84325 23.3333 4.66659 19.1566 4.66659 14C4.66659 8.84331 8.84325 4.66665 13.9999 4.66665C19.1566 4.66665 23.3333 8.84331 23.3333 14C23.3333 19.1566 19.1566 23.3333 13.9999 23.3333Z" fill="#6E7191"/>
</svg>
