<svg width="131" height="35" viewBox="0 0 131 35" fill="none" xmlns="http://www.w3.org/2000/svg">
<rect width="31.0059" height="34.8817" rx="3.10059" fill="#EFF0F7"/>
<path d="M12.2476 18.6352H18.0844V17.019H14.9451C16.2938 15.9842 17.9565 14.4959 17.9565 12.6355C17.9565 11.2054 17.0961 10.0776 15.166 10.0776C13.6196 10.0776 12.2825 10.9612 12.2243 13.0192H14.1428C14.1428 12.217 14.4916 11.7519 15.0846 11.7519C15.6892 11.7519 15.9683 12.1472 15.9683 12.7634C15.9683 14.1936 14.0498 15.6703 12.2476 17.1585V18.6352Z" fill="#262626"/>
<path d="M9.67151 22.8316H8.32585V27.1539H9.67151C11.0916 27.1539 11.9659 26.3415 11.9659 25.0021C11.9659 23.6626 11.0916 22.8316 9.67151 22.8316ZM8.89016 26.6888V23.2905H9.67151C10.8001 23.2905 11.3892 23.9479 11.3892 25.0021C11.3892 26.0563 10.8001 26.6888 9.67151 26.6888H8.89016ZM12.4994 25.4423C12.4994 26.4965 13.2002 27.2097 14.1055 27.2097C14.7319 27.2097 15.1721 26.8872 15.3768 26.5213V27.1539H15.9473V23.7556H15.3768V24.3757C15.1784 24.0223 14.7443 23.6998 14.1117 23.6998C13.2002 23.6998 12.4994 24.3819 12.4994 25.4423ZM15.3768 25.4485C15.3768 26.2485 14.8435 26.7136 14.2234 26.7136C13.6033 26.7136 13.0761 26.2423 13.0761 25.4423C13.0761 24.6424 13.6033 24.1897 14.2234 24.1897C14.8435 24.1897 15.3768 24.661 15.3768 25.4485ZM18.1908 26.5089L17.1242 23.7556H16.4978L17.8683 27.1167L17.1986 28.7538H17.7815L19.8279 23.7556H19.245L18.1908 26.5089ZM22.8384 26.2299C22.8136 25.0145 20.8416 25.4547 20.8416 24.6486C20.8416 24.3757 21.0897 24.1773 21.5052 24.1773C21.9578 24.1773 22.2183 24.4253 22.2431 24.7664H22.8074C22.7702 24.1029 22.2741 23.6998 21.5238 23.6998C20.7672 23.6998 20.2773 24.1277 20.2773 24.6486C20.2773 25.9136 22.2865 25.4733 22.2865 26.2299C22.2865 26.5089 22.0385 26.7322 21.592 26.7322C21.1145 26.7322 20.823 26.4841 20.792 26.1555H20.2091C20.2463 26.7756 20.8044 27.2097 21.5982 27.2097C22.3485 27.2097 22.8384 26.788 22.8384 26.2299Z" fill="#6E7191"/>
<rect x="33.3314" width="31.0059" height="34.8817" rx="3.10059" fill="#EFF0F7"/>
<path d="M43.5592 18.7515H45.6288V10.2636H42.4081V12.1123H43.5592V18.7515ZM53.1901 12.5542C53.0855 11.2984 52.2716 10.0892 50.4461 10.0892C48.2486 10.0892 47.3416 11.5426 47.3416 14.4494C47.3416 16.9841 47.9695 18.798 50.5275 18.798C52.353 18.798 53.4227 17.6353 53.4227 15.9493C53.4227 14.182 52.3762 13.2169 50.8996 13.2169C50.1205 13.2169 49.4345 13.5425 49.0974 14.0889C49.109 12.4495 49.4578 11.6937 50.3531 11.6937C50.9461 11.6937 51.2251 11.9961 51.3414 12.5542H53.1901ZM50.4229 14.7866C51.167 14.7866 51.5507 15.2517 51.5507 15.9609C51.5507 16.6818 51.1205 17.112 50.4461 17.112C49.6903 17.112 49.2601 16.6702 49.2601 15.9261C49.2601 15.1587 49.795 14.7866 50.4229 14.7866Z" fill="#262626"/>
<path d="M49.1647 27.1539H49.729V22.8316H49.1647V24.7292H46.9633V22.8316H46.399V27.1539H46.9633V25.1943H49.1647V27.1539ZM51.2508 25.3059C51.2508 24.5184 51.6601 24.2765 52.1996 24.2765H52.3484V23.6936C51.8089 23.6936 51.4431 23.9293 51.2508 24.3075V23.7556H50.6865V27.1539H51.2508V25.3059Z" fill="#6E7191"/>
<rect x="66.6627" width="31.0059" height="34.8817" rx="3.10059" fill="#EFF0F7"/>
<path d="M78.4615 18.7515H80.4498V17.2399H81.4032V15.5191H80.4498V10.3799H78.229L74.5548 15.6354V17.2399H78.4615V18.7515ZM76.6477 15.5191L78.6011 12.5658V15.5191H76.6477ZM83.0786 10.252V15.3098H84.9971C85.1017 14.9145 85.4273 14.6122 85.9854 14.6122C86.6947 14.6122 87.0784 15.0191 87.0784 15.7865C87.0784 16.519 86.7528 17.0655 85.997 17.0655C85.3459 17.0655 85.0087 16.6702 84.9273 16.2284H82.9856C83.0553 17.6934 84.1599 18.7515 86.0668 18.7515C87.9504 18.7515 88.9969 17.5887 88.9969 15.7982C88.9969 14.4261 88.2876 13.0192 86.4389 13.0192C85.7645 13.0192 85.1831 13.2634 84.8808 13.6006V11.9961H88.5085V10.252H83.0786Z" fill="#262626"/>
<path d="M77.2263 27.1539H77.7906V23.9479L79.2231 27.1539H79.62L81.0463 23.9541V27.1539H81.6106V22.8627H81.009L79.4215 26.4097L77.834 22.8627H77.2263V27.1539ZM82.5676 27.1539H83.1319V23.7556H82.5676V27.1539ZM82.859 23.2037C83.0637 23.2037 83.2311 23.0363 83.2311 22.8192C83.2311 22.6022 83.0637 22.4348 82.859 22.4348C82.642 22.4348 82.4746 22.6022 82.4746 22.8192C82.4746 23.0363 82.642 23.2037 82.859 23.2037ZM86.5803 27.1539H87.1384V25.1509C87.1384 24.1773 86.5369 23.6936 85.7494 23.6936C85.2905 23.6936 84.8812 23.8858 84.658 24.2393V23.7556H84.0936V27.1539H84.658V25.2749C84.658 24.5432 85.0548 24.1835 85.6315 24.1835C86.2021 24.1835 86.5803 24.537 86.5803 25.2315V27.1539Z" fill="#6E7191"/>
<rect x="99.994" width="31.0059" height="34.8817" rx="3.10059" fill="#EFF0F7"/>
<path d="M110.154 18.7515H112.224V10.2636H109.003V12.1123H110.154V18.7515ZM115.134 14.1936C114.32 14.5773 113.843 15.2982 113.843 16.2632C113.843 17.9608 115.25 18.9142 116.983 18.9142C118.715 18.9142 120.122 17.9608 120.122 16.2632C120.122 15.2982 119.645 14.5889 118.82 14.1936C119.459 13.8564 119.913 13.2402 119.913 12.3681C119.913 11.1589 118.983 10.0892 116.983 10.0892C114.983 10.0892 114.041 11.1589 114.041 12.3681C114.041 13.2634 114.483 13.8448 115.134 14.1936ZM116.983 13.6587C116.413 13.6587 115.983 13.2983 115.983 12.6821C115.983 12.0309 116.39 11.6705 116.983 11.6705C117.576 11.6705 117.983 12.0309 117.983 12.6704C117.983 13.2867 117.552 13.6587 116.983 13.6587ZM116.983 15.054C117.692 15.054 118.18 15.4726 118.18 16.1702C118.18 16.7981 117.738 17.2864 116.983 17.2864C116.215 17.2864 115.762 16.8097 115.762 16.1702C115.762 15.4493 116.273 15.054 116.983 15.054Z" fill="#262626"/>
<path d="M113.545 25.9756C113.545 24.3757 111.214 25.0703 111.214 23.9541C111.214 23.489 111.58 23.2471 112.045 23.2595C112.572 23.2657 112.845 23.5944 112.882 23.8858H113.502C113.434 23.2285 112.894 22.7758 112.069 22.7758C111.214 22.7758 110.637 23.2595 110.637 23.9727C110.637 25.5788 112.975 24.8346 112.975 26.0004C112.975 26.4097 112.652 26.7198 112.107 26.7198C111.505 26.7198 111.251 26.3601 111.214 26.0004H110.612C110.625 26.7136 111.238 27.1973 112.107 27.1973C113.043 27.1973 113.545 26.5896 113.545 25.9756ZM115.821 24.1773C116.403 24.1773 116.9 24.5432 116.893 25.2067H114.748C114.81 24.5432 115.269 24.1773 115.821 24.1773ZM117.408 26.1059H116.8C116.676 26.4717 116.354 26.7322 115.845 26.7322C115.269 26.7322 114.785 26.3539 114.742 25.6656H117.458C117.47 25.5478 117.476 25.4485 117.476 25.3245C117.476 24.3943 116.831 23.6998 115.845 23.6998C114.853 23.6998 114.165 24.3757 114.165 25.4485C114.165 26.5276 114.878 27.2097 115.845 27.2097C116.689 27.2097 117.234 26.726 117.408 26.1059ZM118.01 25.4485C118.01 26.5276 118.699 27.2097 119.666 27.2097C120.509 27.2097 121.061 26.7384 121.235 26.0625H120.627C120.503 26.4903 120.168 26.7322 119.666 26.7322C119.046 26.7322 118.587 26.2919 118.587 25.4485C118.587 24.6176 119.046 24.1773 119.666 24.1773C120.168 24.1773 120.509 24.4378 120.627 24.847H121.235C121.061 24.1339 120.509 23.6998 119.666 23.6998C118.699 23.6998 118.01 24.3819 118.01 25.4485Z" fill="#6E7191"/>
</svg>
