<svg width="28" height="28" viewBox="0 0 28 28" fill="none" xmlns="http://www.w3.org/2000/svg">
<path d="M13.9999 2.33331C7.55992 2.33331 2.33325 7.55998 2.33325 14C2.33325 20.44 7.55992 25.6666 13.9999 25.6666C20.4399 25.6666 25.6666 20.44 25.6666 14C25.6666 7.55998 20.4399 2.33331 13.9999 2.33331ZM4.66659 14C4.66659 13.2883 4.75992 12.5883 4.91159 11.9233L10.4883 17.5V18.6666C10.4883 19.95 11.5383 21 12.8216 21V23.2516C8.23659 22.6683 4.66659 18.7483 4.66659 14ZM20.8716 20.3C20.5683 19.355 19.7049 18.6666 18.6549 18.6666H17.4883V15.1666C17.4883 14.525 16.9633 14 16.3216 14H9.32159V11.6666H11.6549C12.2966 11.6666 12.8216 11.1416 12.8216 10.5V8.16665H15.1549C16.4383 8.16665 17.4883 7.11665 17.4883 5.83331V5.35498C20.9066 6.73165 23.3333 10.0916 23.3333 14C23.3333 16.4266 22.3883 18.6433 20.8716 20.3Z" fill="#6E7191"/>
</svg>
