<svg width="22" height="22" viewBox="0 0 22 22" fill="none" xmlns="http://www.w3.org/2000/svg">
<path d="M21.8952 6.46224C21.9338 6.38052 21.9545 6.29329 21.9566 6.20293C21.9578 6.15321 21.9573 5.93996 21.9573 4.51172C21.9573 2.02396 19.9334 0 17.4456 0H4.55498C2.06722 0 0.0432655 2.02396 0.0432655 4.51172C0.0432655 6.29621 0.0327382 6.24061 0.0686171 6.36513C0.0927655 6.44952 0.00424994 6.26162 1.34217 8.9375C0.01091 11.6001 0.0928085 11.4254 0.0686171 11.5099C0.030246 11.6429 0.0432655 11.0289 0.0432655 21.3555C0.0432655 21.7114 0.331844 22 0.687797 22H21.3128C21.6688 22 21.9573 21.7114 21.9573 21.3555C21.9573 11.0208 21.9666 11.6538 21.9395 11.5392C21.9134 11.4291 21.9933 11.6074 20.6584 8.9375C21.8019 6.65053 21.8735 6.50822 21.8952 6.46224ZM13.0484 8.45011C13.131 8.79893 13.4832 9.0142 13.832 8.9268C14.432 8.77667 15.0411 9.16128 15.151 9.77857C15.2152 10.1389 15.5666 10.3737 15.9242 10.2951C16.4898 10.1704 17.0331 10.5131 17.1879 11.043C16.8415 11.043 14.1188 11.043 13.5795 11.043L13.599 11.0138C13.7965 10.7176 13.7164 10.3174 13.4203 10.12C13.124 9.92256 12.7239 10.0025 12.5265 10.2987L12.0304 11.043H9.97025L9.47409 10.2987C9.27665 10.0026 8.87644 9.9226 8.5803 10.12C8.28407 10.3174 8.20406 10.7176 8.40155 11.0138L8.42101 11.043C7.32905 11.043 6.07861 11.043 5.45733 11.043V10.6562C5.45733 9.90404 6.21315 9.38588 6.91302 9.65194C7.19911 9.7607 7.52232 9.65327 7.68633 9.39482C7.85348 9.13142 8.1244 8.95357 8.42969 8.90695C8.6866 8.86768 8.89483 8.67797 8.95774 8.42583C9.19183 7.48743 10.0318 6.83203 11.0003 6.83203C11.9805 6.83203 12.8227 7.4974 13.0484 8.45011ZM20.6683 13.793H14.3948V12.332H20.6683V13.793ZM1.33233 12.332H7.60577V13.793H1.33233V12.332ZM8.89483 12.332H13.1058V15.8125C13.1058 16.9735 12.1613 17.918 11.0003 17.918C9.83932 17.918 8.89483 16.9735 8.89483 15.8125V12.332ZM8.99572 5.54297C9.26857 4.69627 10.0641 4.08203 11.0003 4.08203C11.9365 4.08203 12.7321 4.69627 13.0049 5.54297H8.99572ZM8.33546 6.83203C8.12345 7.10059 7.95033 7.40343 7.82577 7.73343C7.4754 7.85387 7.15812 8.05557 6.8997 8.32163C6.6391 8.28064 6.84569 8.29297 2.46112 8.29297L1.73065 6.83203H8.33546ZM2.46112 9.58203H4.42758C4.13698 10.1489 4.16827 10.5837 4.16827 11.043H1.73065L2.46112 9.58203ZM1.33233 15.082H7.60577V15.8125C7.60577 17.6843 9.12854 19.207 11.0003 19.207C12.8721 19.207 14.3948 17.6843 14.3948 15.8125V15.082H20.6683V16.5871C18.551 16.877 16.8709 18.5738 16.5862 20.7109H5.4144C5.12965 18.5738 3.44957 16.877 1.33233 16.5871V15.082ZM18.5001 11.043C18.4263 10.4651 18.1432 9.95199 17.7292 9.58203H19.5395L20.2699 11.043H18.5001ZM19.5395 8.29297H15.7616C15.3381 7.87157 14.7577 7.61346 14.1237 7.60564C14.0048 7.3248 13.8502 7.06548 13.6663 6.83203H20.2699L19.5395 8.29297ZM1.33233 4.51172C1.33233 2.73475 2.77801 1.28906 4.55498 1.28906H17.4456C19.2226 1.28906 20.6683 2.73475 20.6683 4.51172V5.54297H14.3327C14.0306 3.97848 12.6516 2.79297 11.0003 2.79297C9.34897 2.79297 7.96997 3.97848 7.66794 5.54297H1.33233V4.51172ZM1.33233 20.7109V17.8926C2.73822 18.1603 3.84875 19.2866 4.10991 20.7109H1.33233ZM20.6683 20.7109H17.8907C18.1518 19.2866 19.2624 18.1602 20.6683 17.8926V20.7109Z" fill="#6E7191"/>
<path d="M11.0002 16.457C11.3562 16.457 11.6448 16.1685 11.6448 15.8125V14.4375C11.6448 14.0815 11.3562 13.793 11.0002 13.793C10.6443 13.793 10.3557 14.0815 10.3557 14.4375V15.8125C10.3557 16.1685 10.6443 16.457 11.0002 16.457Z" fill="#6E7191"/>
<path d="M11.0002 9.92578C11.3562 9.92578 11.6448 9.6372 11.6448 9.28125V8.59375C11.6448 8.2378 11.3562 7.94922 11.0002 7.94922C10.6443 7.94922 10.3557 8.2378 10.3557 8.59375V9.28125C10.3557 9.6372 10.6443 9.92578 11.0002 9.92578Z" fill="#6E7191"/>
</svg>
