<svg id="Capa_1" enable-background="new 0 0 512 512" height="512" viewBox="0 0 512 512" width="512" xmlns="http://www.w3.org/2000/svg"><g><path d="m509.561 150.394c.898-1.902 1.379-3.932 1.428-6.035.028-1.157.018-6.12.018-39.359 0-57.897-47.103-105-105-105h-300c-57.897 0-105 47.103-105 105 0 41.53-.245 40.236.59 43.134.562 1.964-1.498-2.409 29.639 59.866-30.982 61.965-29.076 57.9-29.639 59.866-.893 3.097-.59-11.193-.59 229.134 0 8.284 6.716 15 15 15h480c8.284 0 15-6.716 15-15 0-240.517.216-225.784-.415-228.451-.608-2.562 1.253 1.587-29.815-60.549 26.612-53.224 28.278-56.536 28.784-57.606zm-205.89 46.263c1.923 8.118 10.121 13.128 18.238 11.094 13.962-3.494 28.139 5.457 30.697 19.823 1.493 8.387 9.672 13.85 17.993 12.02 13.164-2.901 25.807 5.074 29.41 17.406-8.062 0-71.426 0-83.976 0l.453-.68c4.596-6.893 2.733-16.206-4.16-20.801-6.894-4.594-16.207-2.733-20.801 4.161l-11.545 17.32h-47.945l-11.547-17.32c-4.595-6.893-13.909-8.754-20.801-4.161-6.894 4.596-8.756 13.909-4.16 20.801l.453.68c-25.413 0-54.514 0-68.973 0v-9c0-17.506 17.59-29.565 33.878-23.373 6.658 2.531 14.18.031 17.997-5.984 3.89-6.13 10.195-10.269 17.3-11.354 5.979-.914 10.825-5.329 12.289-11.197 5.448-21.839 24.996-37.092 47.536-37.092 22.812 0 42.413 15.485 47.664 37.657zm177.336 124.343h-146v-34h146zm-450-34h146v34h-146zm176 0h98v81c0 27.019-21.981 49-49 49s-49-21.981-49-49zm2.348-158c6.35-19.705 24.863-34 46.652-34s40.303 14.295 46.652 34zm-15.366 30c-4.934 6.25-8.963 13.298-11.862 20.978-8.154 2.803-15.538 7.497-21.552 13.689-6.065-.954-1.257-.667-103.298-.667l-17-34zm-136.712 64h45.765c-6.763 13.193-6.035 23.312-6.035 34h-56.73zm-26.27 128h146v17c0 43.561 35.439 79 79 79s79-35.439 79-79v-17h146v35.026c-49.274 6.747-88.374 46.237-95.001 95.974h-259.998c-6.627-49.736-45.727-89.227-95.001-95.974zm399.54-94c-1.717-13.449-8.305-25.39-17.94-34h42.13l17 34zm24.19-64h-87.921c-9.857-9.807-23.364-15.814-38.119-15.996-2.766-6.536-6.366-12.571-10.644-18.004h153.684zm-423.73-88c0-41.355 33.645-75 75-75h300c41.355 0 75 33.645 75 75v24h-147.447c-7.029-36.41-39.122-64-77.553-64s-70.524 27.59-77.553 64h-147.447zm0 377v-65.59c32.719 6.229 58.564 32.441 64.642 65.59zm450 0h-64.642c6.077-33.149 31.923-59.362 64.642-65.59z"/><path d="m256.007 383c8.284 0 15-6.716 15-15v-32c0-8.284-6.716-15-15-15s-15 6.716-15 15v32c0 8.284 6.716 15 15 15z"/><path d="m256.007 231c8.284 0 15-6.716 15-15v-16c0-8.284-6.716-15-15-15s-15 6.716-15 15v16c0 8.284 6.716 15 15 15z"/></g></svg>